<svg viewBox="0 0 830.24 113.55" xmlns="http://www.w3.org/2000/svg"><defs><style>.cls-1{fill:#013c5a;}.cls-2{fill:#f2d025;}</style></defs><g data-name="Layer 2" id="Layer_2"><g data-name="Layer 1" id="Layer_1-2"><path d="M85.69,43.3q-5.23-5.61-16.45-5.6H0v69.56H19.93V56H65q6,0,6,6.37v44.91H90.93V60.31Q90.93,48.9,85.69,43.3Z" class="cls-1"></path><path d="M189.38,43.24q-5.25-5.54-16.45-5.54H123.51q-11.22,0-16.44,5.54t-5.25,17.07V84.66q0,11.5,5.25,17t16.44,5.55h49.42q11.2,0,16.45-5.55c3.48-3.69,5.24-9.38,5.24-17V60.31C194.62,52.64,192.86,46.94,189.38,43.24Zm-14.7,39.44q0,6.3-6.08,6.29H127.72q-6,0-6-6.29V62.38q0-6.39,6-6.4H168.6q6.08,0,6.08,6.4Z" class="cls-1"></path><path d="M291.72,43.3q-5.25-5.61-16.45-5.6H206v69.56H226V56h45.11q6,0,6,6.37v44.91H297V60.31Q297,48.9,291.72,43.3Z" class="cls-1"></path><path d="M394.37,69.81q-3.71-4.07-12.75-4.06H332.1c-2.61,0-3.91-1.34-3.91-4v-3.5q0-4,3.91-4h64.22V37.7H324.68c-6.06,0-10.32,1.34-12.75,4s-3.67,6.58-3.67,11.72v9.46q0,7.7,3.64,11.76c2.43,2.71,6.67,4,12.7,4h49.73a3.46,3.46,0,0,1,2.92,1.15,4.6,4.6,0,0,1,.89,2.9v3.94c0,2.7-1.31,4-3.92,4h-66v16.54H381.6c6,0,10.3-1.33,12.75-4s3.71-6.59,3.71-11.72v-10C398.06,76.44,396.83,72.51,394.37,69.81Z" class="cls-1"></path><path d="M405.56,37.7V56h35.05v51.28h19.92V63l-11.82-7h47V37.7Z" class="cls-1"></path><path d="M590.93,43.24q-5.23-5.54-16.44-5.54H525.06q-11.19,0-16.43,5.54t-5.24,17.07V84.66q0,11.5,5.24,17t16.43,5.55h49.43q11.21,0,16.44-5.55t5.24-17V60.31Q596.17,48.81,590.93,43.24ZM576.25,82.68q0,6.3-6.09,6.29H529.3c-4,0-6-2.09-6-6.29V62.38c0-4.26,2-6.4,6-6.4h40.86q6.09,0,6.09,6.4Z" class="cls-1"></path><path d="M694.46,41.7q-3.68-4-12.71-4H607.58v69.56h19.93V91.14h54.24c6,0,10.26-1.35,12.69-4s3.66-7,3.66-13.05V53.42Q698.1,45.71,694.46,41.7ZM678.17,71.4q0,4.21-3.91,4.22H627.51V54.24h46.75q3.91,0,3.91,4Z" class="cls-1"></path><path d="M646.29,0H771.51a48.68,48.68,0,0,1,30.24,9.94h0l-12.5,5.42c-45.39,19.7-93.94,17.28-129.56-6.44Z" class="cls-2"></path><path d="M830.24,14.3,737,113.55l-3.66-27.43c-2.09-15.68,8.24-32.54,24.28-39.65Z" class="cls-2"></path></g></g></svg>